<svg width="188" height="52" viewBox="0 0 188 52" fill="none" xmlns="http://www.w3.org/2000/svg">
<path d="M173.263 41.0864C188.715 20.1697 170.736 18.6756 166.824 18.6756C162.913 18.6756 145.578 19.4788 145.578 14.9405C166.181 18.6804 151.968 0 155.879 0C159.791 0 213.18 4.48217 173.263 41.0864Z" fill="white"/>
<path d="M7.59516 44.8215L2.02454 26.1459H1.92394C1.97424 26.8657 2.01615 27.5806 2.04969 28.2907C2.08322 28.9035 2.10837 29.5503 2.12514 30.2312C2.15028 30.9024 2.16286 31.5152 2.16286 32.0696V44.8215H0V23.4905H3.47064L8.65144 40.8822H8.72689L13.9328 23.4905H17.4035V44.8215H15.0646V31.8799C15.0646 31.3741 15.073 30.7954 15.0897 30.1437C15.1065 29.492 15.1274 28.8694 15.1526 28.2761C15.1861 27.5855 15.2155 26.8851 15.2406 26.1751H15.14L9.5191 44.8215H7.59516Z" fill="white"/>
<path d="M31.4927 44.8215V34.5062C31.4927 33.2417 31.2706 32.2933 30.8263 31.6611C30.3904 31.0288 29.7029 30.7127 28.764 30.7127C28.085 30.7127 27.5149 30.8391 27.0539 31.092C26.5928 31.3449 26.2197 31.7194 25.9347 32.2155C25.6581 32.7116 25.4569 33.3195 25.3311 34.0393C25.2137 34.7591 25.1551 35.5859 25.1551 36.5196V44.8215H22.8665V28.8013H24.7275L25.0545 30.9607H25.1802C25.3898 30.5425 25.6371 30.1826 25.9221 29.881C26.2155 29.5698 26.5341 29.312 26.8778 29.1077C27.2215 28.9035 27.5862 28.7527 27.9718 28.6554C28.3574 28.5582 28.7514 28.5095 29.1538 28.5095C30.688 28.5095 31.8406 28.9764 32.6119 29.9102C33.3915 30.8343 33.7814 32.3176 33.7814 34.3603V44.8215H31.4927Z" fill="white"/>
<path d="M41.0928 44.8215H38.8042V28.8013H41.0928V44.8215ZM38.6282 24.468C38.6282 23.8844 38.7539 23.4613 39.0054 23.1987C39.2653 22.936 39.5839 22.8047 39.9611 22.8047C40.1455 22.8047 40.3174 22.8388 40.4767 22.9068C40.6443 22.9652 40.7868 23.0625 40.9042 23.1987C41.03 23.3348 41.1264 23.5099 41.1934 23.7239C41.2689 23.9282 41.3066 24.1762 41.3066 24.468C41.3066 25.0322 41.1725 25.4553 40.9042 25.7374C40.6443 26.0097 40.33 26.1459 39.9611 26.1459C39.5839 26.1459 39.2653 26.0097 39.0054 25.7374C38.7539 25.465 38.6282 25.0419 38.6282 24.468Z" fill="white"/>
<path d="M62.7773 44.8215V34.5062C62.7773 33.2417 62.5677 32.2933 62.1485 31.6611C61.7294 31.0288 61.0797 30.7127 60.1994 30.7127C59.5875 30.7127 59.0677 30.8294 58.6402 31.0628C58.2126 31.2866 57.8605 31.6221 57.5839 32.0696C57.3156 32.5073 57.1186 33.0569 56.9929 33.7183C56.8671 34.37 56.8042 35.1238 56.8042 35.9798V44.8215H54.5031V34.5062C54.5031 33.2417 54.2935 32.2933 53.8743 31.6611C53.4635 31.0288 52.818 30.7127 51.9378 30.7127C51.2923 30.7127 50.7516 30.8391 50.3157 31.092C49.8797 31.3449 49.5276 31.7194 49.2594 32.2155C48.9995 32.7116 48.8109 33.3195 48.6935 34.0393C48.5845 34.7591 48.53 35.5859 48.53 36.5196V44.8215H46.2414V28.8013H48.1025L48.4294 30.9607H48.5552C48.7564 30.5425 48.9953 30.1826 49.272 29.881C49.5486 29.5698 49.8504 29.312 50.1773 29.1077C50.5127 28.9035 50.8648 28.7527 51.2336 28.6554C51.6109 28.5582 51.9923 28.5095 52.3779 28.5095C53.3839 28.5095 54.218 28.7235 54.8803 29.1515C55.551 29.5795 56.0456 30.2507 56.3641 31.165H56.4647C56.6827 30.7078 56.9426 30.3139 57.2444 29.9832C57.5545 29.6524 57.8899 29.3801 58.2503 29.1661C58.6192 28.9424 59.0048 28.777 59.4072 28.67C59.8096 28.563 60.2204 28.5095 60.6395 28.5095C62.1066 28.5095 63.209 28.9764 63.9467 29.9102C64.6928 30.8343 65.0659 32.3176 65.0659 34.3603V44.8215H62.7773Z" fill="white"/>
<path d="M77.8851 44.8215L77.4198 42.6038H77.3192C77.0426 43.0415 76.7659 43.4209 76.4893 43.7419C76.2126 44.0531 75.9108 44.3109 75.5839 44.5151C75.257 44.7194 74.8923 44.8702 74.4899 44.9675C74.0875 45.0647 73.6222 45.1134 73.0941 45.1134C72.5157 45.1134 71.9833 45.0161 71.4971 44.8215C71.0109 44.6367 70.5875 44.3498 70.227 43.9607C69.875 43.5619 69.5983 43.0658 69.3971 42.4725C69.1959 41.8694 69.0953 41.1594 69.0953 40.3423C69.0953 38.7471 69.5774 37.5215 70.5414 36.6655C71.5139 35.8096 72.9893 35.3427 74.9677 35.2649L77.2815 35.1627V34.156C77.2815 33.5043 77.2186 32.9596 77.0929 32.5219C76.9755 32.0842 76.7995 31.734 76.5647 31.4714C76.3384 31.199 76.0534 31.0045 75.7096 30.8878C75.3743 30.771 74.9887 30.7127 74.5528 30.7127C73.857 30.7127 73.2073 30.8294 72.6037 31.0628C72.0085 31.2963 71.4342 31.5784 70.8809 31.9091L70.0762 29.9102C70.6965 29.5211 71.3881 29.1904 72.151 28.9181C72.9139 28.6457 73.7144 28.5095 74.5528 28.5095C75.4079 28.5095 76.1456 28.6117 76.7659 28.8159C77.3947 29.0105 77.9102 29.3266 78.3126 29.7643C78.7234 30.1923 79.0294 30.7419 79.2306 31.413C79.4318 32.0842 79.5324 32.8964 79.5324 33.8496V44.8215H77.8851ZM73.6851 42.9686C74.1965 42.9686 74.6701 42.8762 75.1061 42.6914C75.542 42.5065 75.9192 42.2293 76.2378 41.8597C76.5563 41.4804 76.8036 41.0086 76.9797 40.4444C77.1641 39.8706 77.2563 39.1994 77.2563 38.431V36.9865L75.4581 37.0887C74.7037 37.1276 74.0707 37.2248 73.5594 37.3805C73.048 37.5361 72.6372 37.755 72.327 38.037C72.0252 38.3094 71.8073 38.645 71.6731 39.0438C71.539 39.4328 71.4719 39.8754 71.4719 40.3715C71.4719 41.2664 71.6731 41.9229 72.0755 42.3412C72.4863 42.7594 73.0228 42.9686 73.6851 42.9686Z" fill="white"/>
<path d="M82.493 28.8013H84.8696L87.5732 37.7452C87.6905 38.1343 87.8079 38.5428 87.9253 38.9708C88.051 39.3988 88.1642 39.8268 88.2648 40.2548C88.3738 40.6828 88.466 41.0961 88.5414 41.4949C88.6169 41.8938 88.6714 42.2634 88.7049 42.6038H88.7804C88.8223 42.3606 88.8893 42.0299 88.9816 41.6117C89.0738 41.1934 89.1744 40.7508 89.2833 40.2839C89.4007 39.8073 89.5181 39.3404 89.6354 38.8833C89.7612 38.4261 89.8702 38.037 89.9624 37.716L92.4648 28.8013H94.8288L89.3714 46.908C89.1366 47.6958 88.881 48.401 88.6043 49.0236C88.336 49.6558 88.0217 50.1908 87.6612 50.6285C87.3007 51.0662 86.8774 51.4018 86.3912 51.6352C85.9049 51.8784 85.3265 52 84.6558 52C84.2199 52 83.8427 51.9708 83.5241 51.9125C83.2055 51.8638 82.9331 51.8103 82.7067 51.752V49.6364C82.8828 49.685 83.1049 49.7239 83.3732 49.7531C83.6415 49.792 83.9223 49.8114 84.2157 49.8114C84.6181 49.8114 84.966 49.7531 85.2594 49.6364C85.5528 49.5294 85.8085 49.3689 86.0265 49.1549C86.2444 48.9409 86.4289 48.6783 86.5798 48.367C86.7391 48.0557 86.8816 47.7007 87.0073 47.3019L87.7241 44.9675L82.493 28.8013Z" fill="white"/>
<path d="M105.712 44.8215L105.246 42.6038H105.146C104.869 43.0415 104.592 43.4209 104.316 43.7419C104.039 44.0531 103.737 44.3109 103.41 44.5151C103.083 44.7194 102.719 44.8702 102.316 44.9675C101.914 45.0647 101.449 45.1134 100.921 45.1134C100.342 45.1134 99.8098 45.0161 99.3235 44.8215C98.8373 44.6367 98.414 44.3498 98.0535 43.9607C97.7014 43.5619 97.4248 43.0658 97.2236 42.4725C97.0224 41.8694 96.9218 41.1594 96.9218 40.3423C96.9218 38.7471 97.4038 37.5215 98.3679 36.6655C99.3403 35.8096 100.816 35.3427 102.794 35.2649L105.108 35.1627V34.156C105.108 33.5043 105.045 32.9596 104.919 32.5219C104.802 32.0842 104.626 31.734 104.391 31.4714C104.165 31.199 103.88 31.0045 103.536 30.8878C103.201 30.771 102.815 30.7127 102.379 30.7127C101.683 30.7127 101.034 30.8294 100.43 31.0628C99.8349 31.2963 99.2607 31.5784 98.7074 31.9091L97.9026 29.9102C98.5229 29.5211 99.2146 29.1904 99.9774 28.9181C100.74 28.6457 101.541 28.5095 102.379 28.5095C103.234 28.5095 103.972 28.6117 104.592 28.8159C105.221 29.0105 105.737 29.3266 106.139 29.7643C106.55 30.1923 106.856 30.7419 107.057 31.413C107.258 32.0842 107.359 32.8964 107.359 33.8496V44.8215H105.712ZM101.512 42.9686C102.023 42.9686 102.497 42.8762 102.932 42.6914C103.368 42.5065 103.746 42.2293 104.064 41.8597C104.383 41.4804 104.63 41.0086 104.806 40.4444C104.991 39.8706 105.083 39.1994 105.083 38.431V36.9865L103.285 37.0887C102.53 37.1276 101.897 37.2248 101.386 37.3805C100.874 37.5361 100.464 37.755 100.153 38.037C99.8517 38.3094 99.6337 38.645 99.4996 39.0438C99.3655 39.4328 99.2984 39.8754 99.2984 40.3715C99.2984 41.2664 99.4996 41.9229 99.902 42.3412C100.313 42.7594 100.849 42.9686 101.512 42.9686Z" fill="white"/>
<path d="M115.035 44.8215H112.696V23.4905H122.24V25.8833H115.035V33.4119H121.762V35.8047H115.035V44.8215Z" fill="url(#paint0_linear_3001_3405)"/>
<path d="M128.093 44.8215H125.804V28.8013H128.093V44.8215ZM125.628 24.468C125.628 23.8844 125.754 23.4613 126.006 23.1987C126.266 22.936 126.584 22.8047 126.961 22.8047C127.146 22.8047 127.318 22.8388 127.477 22.9068C127.645 22.9652 127.787 23.0625 127.904 23.1987C128.03 23.3348 128.127 23.5099 128.194 23.7239C128.269 23.9282 128.307 24.1762 128.307 24.468C128.307 25.0322 128.173 25.4553 127.904 25.7374C127.645 26.0097 127.33 26.1459 126.961 26.1459C126.584 26.1459 126.266 26.0097 126.006 25.7374C125.754 25.465 125.628 25.0419 125.628 24.468Z" fill="url(#paint1_linear_3001_3405)"/>
<path d="M135.53 44.8215H133.242V22.119H135.53V44.8215Z" fill="url(#paint2_linear_3001_3405)"/>
<path d="M157.215 44.8215V34.5062C157.215 33.2417 157.005 32.2933 156.586 31.6611C156.167 31.0288 155.517 30.7127 154.637 30.7127C154.025 30.7127 153.505 30.8294 153.078 31.0628C152.65 31.2866 152.298 31.6221 152.021 32.0696C151.753 32.5073 151.556 33.0569 151.43 33.7183C151.305 34.37 151.242 35.1238 151.242 35.9798V44.8215H148.941V34.5062C148.941 33.2417 148.731 32.2933 148.312 31.6611C147.901 31.0288 147.256 30.7127 146.375 30.7127C145.73 30.7127 145.189 30.8391 144.753 31.092C144.317 31.3449 143.965 31.7194 143.697 32.2155C143.437 32.7116 143.248 33.3195 143.131 34.0393C143.022 34.7591 142.968 35.5859 142.968 36.5196V44.8215H140.679V28.8013H142.54L142.867 30.9607H142.993C143.194 30.5425 143.433 30.1826 143.709 29.881C143.986 29.5698 144.288 29.312 144.615 29.1077C144.95 28.9035 145.302 28.7527 145.671 28.6554C146.048 28.5582 146.43 28.5095 146.815 28.5095C147.821 28.5095 148.656 28.7235 149.318 29.1515C149.988 29.5795 150.483 30.2507 150.802 31.165H150.902C151.12 30.7078 151.38 30.3139 151.682 29.9832C151.992 29.6524 152.327 29.3801 152.688 29.1661C153.057 28.9424 153.442 28.777 153.845 28.67C154.247 28.563 154.658 28.5095 155.077 28.5095C156.544 28.5095 157.646 28.9764 158.384 29.9102C159.13 30.8343 159.503 32.3176 159.503 34.3603V44.8215H157.215Z" fill="url(#paint3_linear_3001_3405)"/>
<path d="M172.8 40.4299C172.8 41.208 172.679 41.8889 172.436 42.4725C172.193 43.0561 171.841 43.5473 171.379 43.9461C170.927 44.3352 170.378 44.627 169.732 44.8215C169.087 45.0161 168.362 45.1134 167.557 45.1134C166.643 45.1134 165.859 45.0258 165.205 44.8507C164.551 44.6854 163.977 44.4373 163.483 44.1066V41.6846C163.742 41.8403 164.032 41.9959 164.35 42.1515C164.669 42.2974 165.004 42.4287 165.356 42.5455C165.708 42.6622 166.069 42.7594 166.438 42.8373C166.815 42.9053 167.188 42.9394 167.557 42.9394C168.102 42.9394 168.563 42.8859 168.94 42.7789C169.326 42.6719 169.636 42.5211 169.87 42.3266C170.114 42.1223 170.29 41.8792 170.399 41.5971C170.508 41.3053 170.562 40.9843 170.562 40.6341C170.562 40.3326 170.52 40.0602 170.436 39.8171C170.353 39.5739 170.197 39.3356 169.971 39.1021C169.753 38.859 169.451 38.6158 169.066 38.3726C168.68 38.1294 168.185 37.8571 167.582 37.5556C166.978 37.254 166.433 36.9574 165.947 36.6655C165.469 36.3737 165.063 36.0479 164.727 35.688C164.392 35.3281 164.132 34.9147 163.948 34.4478C163.772 33.9712 163.684 33.407 163.684 32.7553C163.684 32.0744 163.797 31.4714 164.023 30.9461C164.258 30.4111 164.585 29.9637 165.004 29.6038C165.423 29.2439 165.926 28.9716 166.513 28.7868C167.1 28.6019 167.754 28.5095 168.475 28.5095C169.288 28.5095 170.03 28.6117 170.7 28.8159C171.379 29.0202 172.021 29.2877 172.624 29.6184L171.832 31.7632C171.287 31.4811 170.726 31.2379 170.147 31.0337C169.577 30.8197 168.994 30.7127 168.399 30.7127C167.544 30.7127 166.911 30.878 166.5 31.2088C166.09 31.5297 165.884 31.9918 165.884 32.5948C165.884 32.9353 165.93 33.2319 166.023 33.4848C166.123 33.7377 166.291 33.9761 166.526 34.1998C166.76 34.4235 167.075 34.6521 167.469 34.8855C167.863 35.1092 168.353 35.3621 168.94 35.6442C169.544 35.936 170.08 36.2278 170.55 36.5196C171.027 36.8114 171.434 37.1422 171.769 37.5118C172.105 37.8717 172.36 38.2851 172.536 38.752C172.712 39.2189 172.8 39.7782 172.8 40.4299Z" fill="url(#paint4_linear_3001_3405)"/>
<defs>
<linearGradient id="paint0_linear_3001_3405" x1="112.67" y1="24.6518" x2="178.996" y2="41.0651" gradientUnits="userSpaceOnUse">
<stop offset="0.377016" stopColor="#E13C52"/>
<stop offset="0.937899" stopColor="#B92283"/>
</linearGradient>
<linearGradient id="paint1_linear_3001_3405" x1="112.67" y1="24.6518" x2="178.996" y2="41.0651" gradientUnits="userSpaceOnUse">
<stop offset="0.377016" stopColor="#E13C52"/>
<stop offset="0.937899" stopColor="#B92283"/>
</linearGradient>
<linearGradient id="paint2_linear_3001_3405" x1="112.67" y1="24.6518" x2="178.996" y2="41.0651" gradientUnits="userSpaceOnUse">
<stop offset="0.377016" stopColor="#E13C52"/>
<stop offset="0.937899" stopColor="#B92283"/>
</linearGradient>
<linearGradient id="paint3_linear_3001_3405" x1="112.67" y1="24.6518" x2="178.996" y2="41.0651" gradientUnits="userSpaceOnUse">
<stop offset="0.377016" stopColor="#E13C52"/>
<stop offset="0.937899" stopColor="#B92283"/>
</linearGradient>
<linearGradient id="paint4_linear_3001_3405" x1="112.67" y1="24.6518" x2="178.996" y2="41.0651" gradientUnits="userSpaceOnUse">
<stop offset="0.377016" stopColor="#E13C52"/>
<stop offset="0.937899" stopColor="#B92283"/>
</linearGradient>
</defs>
</svg>
